<svg width="518.07880859375px" height="122px" xmlns="http://www.w3.org/2000/svg" viewBox="-9.039404296874977 14 518.07880859375 122" style="background: none;" preserveAspectRatio="xMidYMid"><defs><filter id="editing-extrude-glow"><feFlood flood-color="#d8ebf9" result="flood-1"></feFlood><feMorphology operator="erode" radius="1" in="SourceAlpha" result="erode"></feMorphology><feComposite operator="in" in="flood-1" in2="erode" result="comp1"></feComposite><feConvolveMatrix order="3,3" divisor="1" in="comp1" result="convolve" kernelMatrix="0 0 0 1 1 1 0 0 0"></feConvolveMatrix><feOffset dx="-3" dy="0" in="convolve" result="extrude"></feOffset><feComposite operator="in" in="flood-1" in2="extrude" result="comp-extrude"></feComposite><feFlood flood-color="#71c2cc" result="flood-2"></feFlood><feComposite operator="in" in="flood-2" in2="SourceAlpha" result="comp2"></feComposite><feMorphology operator="dilate" radius="1" in="comp2" result="dilate"></feMorphology><feOffset dx="-4.5" dy="0" in="dilate" result="offset"></feOffset><feGaussianBlur in="offset" stdDeviation="5.8" result="blur"></feGaussianBlur><feComponentTransfer in="blur" result="shadow"><feFuncA type="linear" slope="0.8" intercept="-0.2"></feFuncA></feComponentTransfer><feMerge><feMergeNode in="shadow"></feMergeNode><feMergeNode in="comp-extrude"></feMergeNode><feMergeNode in="SourceGraphic"></feMergeNode></feMerge></filter></defs><g filter="url(#editing-extrude-glow)"><g transform="translate(67.84373891353607, 100.05653381347656)"><path d="M14.38-9.69L14.38-9.69L14.38-9.69Q14.81-8.63 15.69-8.63L15.69-8.63L15.69-8.63Q16.50-8.63 16.75-8.31L16.75-8.31L16.75-8.31Q17.19-7.63 16.75-5.69L16.75-5.69L16.75-5.69Q16.50-4.56 16.47-3.94L16.47-3.94L16.47-3.94Q16.44-3.31 16.38-2.88L16.38-2.88L16.38-2.88Q16.25-2.13 15.50-1.25L15.50-1.25L15.50-1.25Q14.69-0.56 13.72-0.28L13.72-0.28L13.72-0.28Q12.75 0 12.13 0.16L12.13 0.16L12.13 0.16Q11.50 0.31 10.75 0.69L10.75 0.69L10.75 0.69Q9.63 1.25 8.84 1.19L8.84 1.19L8.84 1.19Q8.06 1.13 7.66 1.09L7.66 1.09L7.66 1.09Q7.25 1.06 6.72 1.25L6.72 1.25L6.72 1.25Q6.19 1.44 5.88 1.41L5.88 1.41L5.88 1.41Q5.56 1.38 5.25 1.25L5.25 1.25L5.25 1.25Q4.31 0.88 3.50 0.88L3.50 0.88L3.50 0.88Q2.38 0.88 2-2.88L2-2.88L2-2.88Q1.81-4.38 1.94-5.75L1.94-5.75L1.94-5.75Q2.06-7.13 2.38-7.53L2.38-7.53L2.38-7.53Q2.69-7.94 3.13-8.09L3.13-8.09L3.13-8.09Q3.56-8.25 3.94-8.34L3.94-8.34L3.94-8.34Q4.31-8.44 4.63-8.50L4.63-8.50L4.63-8.50Q5-8.69 5.03-9.84L5.03-9.84L5.03-9.84Q5.06-11 5.13-12L5.13-12L5.13-12Q5.19-14.75 5.56-15.88L5.56-15.88L5.56-15.88Q6.19-17.56 5.38-18.75L5.38-18.75L5.38-18.75Q4.56-20.19 4.75-24.13L4.75-24.13L4.75-24.13Q4.88-26.50 4.69-28L4.69-28L4.69-28Q4.44-30.94 4.50-32.13L4.50-32.13L4.50-32.13Q4.56-33 4.56-33.50L4.56-33.50L4.56-33.50Q4.56-34 4.50-34.25L4.50-34.25L4.50-34.25Q4.31-34.75 3.38-34.78L3.38-34.78L3.38-34.78Q2.44-34.81 1.63-35.63L1.63-35.63L1.63-35.63Q0.81-36.44 0.94-38.19L0.94-38.19L0.94-38.19Q1.13-39.94 0.94-41.38L0.94-41.38L0.94-41.38Q0.75-42.81 1.13-43.63L1.13-43.63L1.13-43.63Q1.50-44.44 1.56-45L1.56-45L1.56-45Q1.63-45.56 1.75-46L1.75-46L1.75-46Q2.13-47 3.47-47.13L3.47-47.13L3.47-47.13Q4.81-47.25 5.97-47.09L5.97-47.09L5.97-47.09Q7.13-46.94 8.13-46.69L8.13-46.69L8.13-46.69Q10.75-46.06 11.56-46.06L11.56-46.06L11.56-46.06Q12.19-46.06 12.97-46.22L12.97-46.22L12.97-46.22Q13.75-46.38 14.50-46.50L14.50-46.50L14.50-46.50Q16.25-46.81 17.16-46.31L17.16-46.31L17.16-46.31Q18.06-45.81 18.28-45.13L18.28-45.13L18.28-45.13Q18.50-44.44 18.50-43.66L18.50-43.66L18.50-43.66Q18.50-42.88 18.41-42L18.41-42L18.41-42Q18.31-41.13 18.50-40.13L18.50-40.13L18.50-40.13Q19.06-37.88 18.56-36.47L18.56-36.47L18.56-36.47Q18.06-35.06 17.63-34.78L17.63-34.78L17.63-34.78Q17.19-34.50 16.78-34.44L16.78-34.44L16.78-34.44Q16.38-34.38 15.97-34.34L15.97-34.34L15.97-34.34Q15.56-34.31 15.25-33.88L15.25-33.88L15.25-33.88Q14.75-33.06 14.75-27.63L14.75-27.63L14.88-17.19L14.88-17.19Q14.88-13.19 14.38-9.69ZM51.31-0.44L51.31-0.44L51.31-0.44Q49.25-0.44 49.44-3.94L49.44-3.94L49.44-3.94Q49.56-6.31 49.47-8.13L49.47-8.13L49.47-8.13Q49.38-9.94 48.69-11.94L48.69-11.94L48.69-11.94Q48-13.94 47.75-15.56L47.75-15.56L47.75-15.56Q47.50-17.19 48.13-19.13L48.13-19.13L48.13-19.13Q49-21.88 48.25-25.25L48.25-25.25L48.25-25.25Q48.13-25.81 48.13-26.41L48.13-26.41L48.13-26.41Q48.13-27 48.06-27.50L48.06-27.50L48.06-27.50Q48-28.69 47.44-28.69L47.44-28.69L47.44-28.69Q46.94-28.69 46.75-27.81L46.75-27.81L46.75-27.81Q46.38-25.56 45.88-24.31L45.88-24.31L45.88-24.31Q44.50-21.06 44.81-18.94L44.81-18.94L44.81-18.94Q45.63-15.81 44.69-14.13L44.69-14.13L44.69-14.13Q44.25-13.31 43.63-12.94L43.63-12.94L43.63-12.94Q43-12.56 42.81-12.28L42.81-12.28L42.81-12.28Q42.63-12 42.66-11.28L42.66-11.28L42.66-11.28Q42.69-10.56 42.31-10.13L42.31-10.13L42.31-10.13Q41.94-9.69 41.84-9.19L41.84-9.19L41.84-9.19Q41.75-8.69 41.63-8.25L41.63-8.25L41.63-8.25Q41.31-7.13 40.25-7.25L40.25-7.25L40.25-7.25Q39.19-7.38 38.78-8.56L38.78-8.56L38.78-8.56Q38.38-9.75 38.16-11.31L38.16-11.31L38.16-11.31Q37.94-12.88 37.72-14.44L37.72-14.44L37.72-14.44Q37.50-16 36.91-16.81L36.91-16.81L36.91-16.81Q36.31-17.63 36.09-18.44L36.09-18.44L36.09-18.44Q35.88-19.25 35.75-20.13L35.75-20.13L35.75-20.13Q35.44-22.25 34.94-23.06L34.94-23.06L34.94-23.06Q34.50-23.81 34.25-25.88L34.25-25.88L34.25-25.88Q34-27.94 33.78-28.69L33.78-28.69L33.78-28.69Q33.56-29.44 33-29.44L33-29.44L33-29.44Q32.38-29.38 32.31-28.50L32.31-28.50L32.31-28.50Q32.25-27.63 32.50-27.06L32.50-27.06L32.50-27.06Q32.75-26.50 32.56-25.06L32.56-25.06L32.56-25.06Q32.38-23.63 32.63-22.56L32.63-22.56L32.63-22.56Q32.88-21.50 33.13-20.66L33.13-20.66L33.13-20.66Q33.38-19.81 33.56-18.88L33.56-18.88L33.56-18.88Q34.19-16.31 33.84-14.53L33.84-14.53L33.84-14.53Q33.50-12.75 33.44-11.78L33.44-11.78L33.44-11.78Q33.38-10.81 32.66-10.38L32.66-10.38L32.66-10.38Q31.94-9.94 31.78-9.47L31.78-9.47L31.78-9.47Q31.63-9 31.56-8.41L31.56-8.41L31.56-8.41Q31.50-7.81 31.44-7.16L31.44-7.16L31.44-7.16Q31.38-6.50 31-5.56L31-5.56L31-5.56Q30.19-3.56 30.47-2.63L30.47-2.63L30.47-2.63Q30.75-1.69 30.16-0.63L30.16-0.63L30.16-0.63Q29.56 0.44 28.47 0.53L28.47 0.53L28.47 0.53Q27.38 0.63 26.72 0.13L26.72 0.13L26.72 0.13Q26.06-0.38 25.56-1.13L25.56-1.13L25.56-1.13Q23.50-4.50 23.94-8.75L23.94-8.75L23.94-8.75Q24-9.69 24.09-10.63L24.09-10.63L24.09-10.63Q24.19-11.56 24.06-12.94L24.06-12.94L24.06-12.94Q23.88-16.31 22.50-18.25L22.50-18.25L22.50-18.25Q21.56-19.56 21.44-21.44L21.44-21.44L21.44-21.44Q21.13-24.69 21.81-26.06L21.81-26.06L21.81-26.06Q22.13-26.69 22.13-28.03L22.13-28.03L22.13-28.03Q22.13-29.38 22.09-29.97L22.09-29.97L22.09-29.97Q22.06-30.56 22.16-30.84L22.16-30.84L22.16-30.84Q22.25-31.13 22.28-31.84L22.28-31.84L22.28-31.84Q22.31-32.56 22.31-33.50L22.31-33.50L22.31-33.50Q22.25-35.19 21.88-36.59L21.88-36.59L21.88-36.59Q21.50-38 21.41-39.03L21.41-39.03L21.41-39.03Q21.31-40.06 21.44-41.06L21.44-41.06L21.44-41.06Q21.63-43.31 22.22-44.25L22.22-44.25L22.22-44.25Q22.81-45.19 23.31-45.34L23.31-45.34L23.31-45.34Q23.81-45.50 24.44-45.50L24.44-45.50L24.44-45.50Q25.06-45.50 25.50-45.72L25.50-45.72L25.50-45.72Q25.94-45.94 26.44-46.13L26.44-46.13L26.44-46.13Q27.50-46.56 28.50-46.19L28.50-46.19L28.50-46.19Q29.50-45.81 30.22-45.94L30.22-45.94L30.22-45.94Q30.94-46.06 31.56-46.25L31.56-46.25L31.56-46.25Q33.19-46.88 34.03-46.56L34.03-46.56L34.03-46.56Q34.88-46.25 35.56-45.50L35.56-45.50L35.56-45.50Q36.25-44.75 36.34-44.28L36.34-44.28L36.34-44.28Q36.44-43.81 36.63-43.63L36.63-43.63L36.63-43.63Q36.81-43.44 37.06-43.25L37.06-43.25L37.06-43.25Q37.56-42.81 37.56-41.88L37.56-41.88L37.56-41.88Q37.56-40.50 38.31-38.19L38.31-38.19L38.31-38.19Q39.63-33.81 40.81-33.44L40.81-33.44L40.81-33.44Q41.06-33.38 41.69-33.81L41.69-33.81L41.69-33.81Q42.31-34.25 42.56-35.13L42.56-35.13L42.56-35.13Q42.94-36.63 42.81-37.41L42.81-37.41L42.81-37.41Q42.69-38.19 43.03-38.63L43.03-38.63L43.03-38.63Q43.38-39.06 43.41-39.44L43.41-39.44L43.41-39.44Q43.44-39.81 43.50-40.44L43.50-40.44L43.50-40.44Q43.56-41.06 43.75-41.88L43.75-41.88L43.75-41.88Q44.25-43.94 45.19-45L45.19-45L45.19-45Q46.13-46.06 47.13-46.25L47.13-46.25L47.13-46.25Q48.13-46.44 49.16-46.34L49.16-46.34L49.16-46.34Q50.19-46.25 51.22-46.16L51.22-46.16L51.22-46.16Q52.25-46.06 53.31-46.50L53.31-46.50L53.31-46.50Q56.13-47.75 57.19-46.56L57.19-46.56L57.19-46.56Q57.50-46.25 57.78-46.13L57.78-46.13L57.78-46.13Q58.06-46 58.31-45.88L58.31-45.88L58.31-45.88Q58.81-45.50 58.91-44.72L58.91-44.72L58.91-44.72Q59-43.94 59.13-43.66L59.13-43.66L59.13-43.66Q59.25-43.38 59.38-43.13L59.38-43.13L59.38-43.13Q60.06-41.50 60.25-37.50L60.25-37.50L60.25-37.50Q60.44-30.94 60-30L60-30L60-30Q60.44-27.44 59.56-26.38L59.56-26.38L59.56-26.38Q59.38-26.19 59.19-26L59.19-26L59.19-26Q58.06-24.88 57.81-23L57.81-23L57.81-23Q57.69-22.25 57.84-21.75L57.84-21.75L57.84-21.75Q58-21.25 58-20.69L58-20.69L58-20.69Q58-20.13 57.97-19.69L57.97-19.69L57.97-19.69Q57.94-19.25 57.94-18.75L57.94-18.75L57.94-18.75Q57.81-16.94 57.91-16.13L57.91-16.13L57.91-16.13Q58-15.31 57.91-14.94L57.91-14.94L57.91-14.94Q57.81-14.56 57.69-14.25L57.69-14.25L57.69-14.25Q57.38-13.31 57.50-12.66L57.50-12.66L57.50-12.66Q57.63-12 57.50-11.63L57.50-11.63L57.50-11.63Q57.38-11.25 57.19-10.88L57.19-10.88L57.19-10.88Q56.69-9.81 56.78-8.16L56.78-8.16L56.78-8.16Q56.88-6.50 56.66-5.38L56.66-5.38L56.66-5.38Q56.44-4.25 56.44-3.06L56.44-3.06L56.44-3.06Q56.31 0.25 55.56 0L55.56 0L55.56 0Q55.25-0.13 55.03 0.31L55.03 0.31L55.03 0.31Q54.81 0.75 54.66 1.44L54.66 1.44L54.66 1.44Q54.50 2.13 53.81 1.91L53.81 1.91L53.81 1.91Q53.13 1.69 52.91 0.88L52.91 0.88L52.91 0.88Q52.69 0.06 52.34-0.19L52.34-0.19L52.34-0.19Q52-0.44 51.31-0.44ZM67.69 0.75L67.69 0.75L67.69 0.75Q67.06 0.94 66.28 0.66L66.28 0.66L66.28 0.66Q65.50 0.38 65.19-0.41L65.19-0.41L65.19-0.41Q64.88-1.19 64.78-2.22L64.78-2.22L64.78-2.22Q64.69-3.25 64.75-4.44L64.75-4.44L64.75-4.44Q64.81-5.63 64.81-6.75L64.81-6.75L64.81-6.75Q64.81-9.25 64-9.94L64-9.94L64-9.94Q62.31-11.19 62.63-16.31L62.63-16.31L62.63-16.31Q62.94-19.25 63.31-21L63.31-21L63.31-21Q63.94-23.88 63.91-25.88L63.91-25.88L63.91-25.88Q63.88-27.88 64.03-29L64.03-29L64.03-29Q64.19-30.13 64.41-30.88L64.41-30.88L64.41-30.88Q64.63-31.63 64.94-32.44L64.94-32.44L64.94-32.44Q65.25-33.25 65.50-35.13L65.50-35.13L65.50-35.13Q66.13-39.81 66.63-40.94L66.63-40.94L66.63-40.94Q67.31-42.50 68.28-44.16L68.28-44.16L68.28-44.16Q69.25-45.81 69.88-46.38L69.88-46.38L69.88-46.38Q71.31-47.44 74-46.56L74-46.56L74-46.56Q76-45.88 77.72-46.13L77.72-46.13L77.72-46.13Q79.44-46.38 80.34-46.34L80.34-46.34L80.34-46.34Q81.25-46.31 82.38-45.66L82.38-45.66L82.38-45.66Q83.50-45 84.13-44.09L84.13-44.09L84.13-44.09Q84.75-43.19 85-42.13L85-42.13L85-42.13Q85.44-40.31 85.06-37.53L85.06-37.53L85.06-37.53Q84.69-34.75 84.78-33.03L84.78-33.03L84.78-33.03Q84.88-31.31 85.53-29.78L85.53-29.78L85.53-29.78Q86.19-28.25 86.41-27.34L86.41-27.34L86.41-27.34Q86.63-26.44 86.78-25.53L86.78-25.53L86.78-25.53Q86.94-24.63 87.03-23.59L87.03-23.59L87.03-23.59Q87.13-22.56 87.41-21.25L87.41-21.25L87.41-21.25Q87.69-19.94 87.72-19.16L87.72-19.16L87.72-19.16Q87.75-18.38 87.69-17.88L87.69-17.88L87.69-17.88Q87.63-17.38 87.53-16.97L87.53-16.97L87.53-16.97Q87.44-16.56 87.59-15.72L87.59-15.72L87.59-15.72Q87.75-14.88 87.59-13.88L87.59-13.88L87.59-13.88Q87.44-12.88 87.25-11.94L87.25-11.94L87.25-11.94Q86.56-9.06 86.69-7.88L86.69-7.88L86.69-7.88Q86.94-5.75 86.69-4.84L86.69-4.84L86.69-4.84Q86.44-3.94 86.22-3.38L86.22-3.38L86.22-3.38Q86-2.81 85.72-1.81L85.72-1.81L85.72-1.81Q85.44-0.81 84.56 0L84.56 0L84.56 0Q83.69 0.81 82.91 0.50L82.91 0.50L82.91 0.50Q82.13 0.19 81.91-0.41L81.91-0.41L81.91-0.41Q81.69-1 81.53-1.63L81.53-1.63L81.53-1.63Q81.38-2.25 81.16-2.75L81.16-2.75L81.16-2.75Q80.94-3.25 80.38-3.31L80.38-3.31L80.38-3.31Q79.38-3.44 79.31-4.47L79.31-4.47L79.31-4.47Q79.25-5.50 79.34-6.28L79.34-6.28L79.34-6.28Q79.44-7.06 79.25-7.88L79.25-7.88L79.25-7.88Q79.06-8.69 78.63-9.44L78.63-9.44L78.63-9.44Q77.50-11.38 76-11.56L76-11.56L76-11.56Q73.75-11.88 72.88-9.38L72.88-9.38L72.88-9.38Q72.69-8.75 72.59-7.72L72.59-7.72L72.59-7.72Q72.50-6.69 72.09-5.88L72.09-5.88L72.09-5.88Q71.69-5.06 71.22-4.50L71.22-4.50L71.22-4.50Q70.75-3.94 70.34-3.47L70.34-3.47L70.34-3.47Q69.94-3 69.81-2.31L69.81-2.31L69.81-2.31Q69.31 0.38 67.69 0.75ZM73.25-25.44L73.25-25.44L73.25-25.44Q72-22.06 72.94-20.06L72.94-20.06L72.94-20.06Q73.56-18.94 74.56-18.88L74.56-18.88L74.56-18.88Q76.38-18.69 76.72-19.16L76.72-19.16L76.72-19.16Q77.06-19.63 77.53-20.16L77.53-20.16L77.53-20.16Q78-20.69 77.88-21.78L77.88-21.78L77.88-21.78Q77.75-22.88 77.69-23.72L77.69-23.72L77.69-23.72Q77.63-24.56 77.09-25.63L77.09-25.63L77.09-25.63Q76.56-26.69 76.38-27.91L76.38-27.91L76.38-27.91Q76.19-29.13 76.13-30.25L76.13-30.25L76.13-30.25Q75.88-32.75 75-32.75L75-32.75L75-32.75Q74.38-32.75 74.22-32.09L74.22-32.09L74.22-32.09Q74.06-31.44 74-30.38L74-30.38L74-30.38Q73.94-27.13 73.25-25.44ZM109.31 0.19L109.31 0.19L109.31 0.19Q109.13-0.19 109.25-0.91L109.25-0.91L109.25-0.91Q109.38-1.63 109.41-3L109.41-3L109.41-3Q109.44-4.38 108.75-4.38L108.75-4.38L108.75-4.38Q108.19-4.38 107.78-3.16L107.78-3.16L107.78-3.16Q107.38-1.94 106.69-1.59L106.69-1.59L106.69-1.59Q106-1.25 105.34-1.09L105.34-1.09L105.34-1.09Q104.69-0.94 104.03-0.78L104.03-0.78L104.03-0.78Q103.38-0.63 102.94-0.19L102.94-0.19L102.94-0.19Q102.50 0.25 101.56 0.72L101.56 0.72L101.56 0.72Q100.63 1.19 99.38 0.47L99.38 0.47L99.38 0.47Q98.13-0.25 97.69-0.81L97.69-0.81L97.69-0.81Q97.25-1.38 97.03-1.88L97.03-1.88L97.03-1.88Q96.81-2.38 96.56-2.75L96.56-2.75L96.56-2.75Q96.31-3.13 95.75-3.25L95.75-3.25L95.75-3.25Q94.50-3.56 94.06-5.28L94.06-5.28L94.06-5.28Q93.63-7 93.19-8.97L93.19-8.97L93.19-8.97Q92.75-10.94 92.59-12.44L92.59-12.44L92.59-12.44Q92.44-13.94 92.25-15.31L92.25-15.31L92.25-15.31Q91.81-18.63 91.06-19.28L91.06-19.28L91.06-19.28Q90.31-19.94 90.19-21.13L90.19-21.13L90.19-21.13Q89.88-24.13 89.88-25.41L89.88-25.41L89.88-25.41Q89.88-26.69 90.59-28.16L90.59-28.16L90.59-28.16Q91.31-29.63 91.31-31.09L91.31-31.09L91.31-31.09Q91.31-32.56 91.09-33.34L91.09-33.34L91.09-33.34Q90.88-34.13 90.75-34.59L90.75-34.59L90.75-34.59Q90.63-35.06 90.63-35.63L90.63-35.63L90.63-35.63Q90.56-36.63 91.13-38.63L91.13-38.63L91.13-38.63Q91.44-39.69 91.63-40.59L91.63-40.59L91.63-40.59Q91.81-41.50 92-42.19L92-42.19L92-42.19Q92.69-44.69 95.50-44.69L95.50-44.69L96.38-44.69L96.38-44.69Q98.06-44.69 99.38-45.75L99.38-45.75L99.38-45.75Q100-46.19 100.75-46.44L100.75-46.44L100.75-46.44Q101.50-46.69 102-46.41L102-46.41L102-46.41Q102.50-46.13 103.38-46.22L103.38-46.22L103.38-46.22Q104.25-46.31 105.22-46.91L105.22-46.91L105.22-46.91Q106.19-47.50 107.50-47.72L107.50-47.72L107.50-47.72Q108.81-47.94 110.25-47.59L110.25-47.59L110.25-47.59Q111.69-47.25 112.25-46.44L112.25-46.44L112.25-46.44Q112.81-45.63 113.16-45.41L113.16-45.41L113.16-45.41Q113.50-45.19 113.81-45L113.81-45L113.81-45Q115-44.13 115.25-41.25L115.25-41.25L115.25-41.25Q115.44-38.81 114.63-36.63L114.63-36.63L114.63-36.63Q114.50-36.19 114.19-35.25L114.19-35.25L114.19-35.25Q113.88-34.31 113.41-33.28L113.41-33.28L113.41-33.28Q112.94-32.25 112.94-31.34L112.94-31.34L112.94-31.34Q112.94-30.44 112.84-29.63L112.84-29.63L112.84-29.63Q112.75-28.81 112.31-28.13L112.31-28.13L112.31-28.13Q111.25-26.44 108.13-26.56L108.13-26.56L108.13-26.56Q105.44-26.56 104.81-27.44L104.81-27.44L104.81-27.44Q104.50-27.88 104.47-28.56L104.47-28.56L104.47-28.56Q104.44-29.25 104.34-30.44L104.34-30.44L104.34-30.44Q104.25-31.63 103.63-32.63L103.63-32.63L103.63-32.63Q103-33.63 101.94-33.13L101.94-33.13L101.94-33.13Q101.25-32.75 100.94-30.59L100.94-30.59L100.94-30.59Q100.63-28.44 101-26.25L101-26.25L101-26.25Q101.38-24.06 101.34-23.59L101.34-23.59L101.34-23.59Q101.31-23.13 101.19-22.69L101.19-22.69L101.19-22.69Q100.38-19.75 100.94-14.38L100.94-14.38L100.94-14.38Q101.38-10.44 102.88-10.13L102.88-10.13L102.88-10.13Q104.25-9.88 105.13-11.56L105.13-11.56L105.13-11.56Q105.88-13.13 105-18L105-18L105-18Q104.25-21.81 106.25-22L106.25-22L106.25-22Q107.13-22.13 108.47-22.06L108.47-22.06L108.47-22.06Q109.81-22 110.84-22.28L110.84-22.28L110.84-22.28Q111.88-22.56 113.03-22.28L113.03-22.28L113.03-22.28Q114.19-22 114.94-21.19L114.94-21.19L114.94-21.19Q115.69-20.38 114.94-18.06L114.94-18.06L114.94-18.06Q113.44-13.44 114.38-10L114.38-10L114.38-10Q114.50-9.44 114.75-8.44L114.75-8.44L114.75-8.44Q115-7.44 115.19-6.22L115.19-6.22L115.19-6.22Q115.38-5 115.44-3.75L115.44-3.75L115.44-3.75Q115.50-2.50 115.25-1.50L115.25-1.50L115.25-1.50Q114.81 0.81 112.91 0.81L112.91 0.81L112.91 0.81Q111 0.81 110.25 0.69L110.25 0.69L110.25 0.69Q109.50 0.56 109.31 0.19ZM119.50-11.75L119.50-11.75L119.44-14.94L119.44-14.94Q119.44-15.81 119.50-16.56L119.50-16.56L119.50-16.56Q119.56-17.38 119.38-18.56L119.38-18.56L119.38-18.56Q119.06-20.63 119.09-21.59L119.09-21.59L119.09-21.59Q119.13-22.56 119.09-23.16L119.09-23.16L119.09-23.16Q119.06-23.75 118.94-24.25L118.94-24.25L118.94-24.25Q118.75-25 118.03-26.63L118.03-26.63L118.03-26.63Q117.31-28.25 117.31-30.13L117.31-30.13L117.31-30.13Q117.31-32 118.13-33.13L118.13-33.13L118.13-33.13Q118.88-34.25 118.69-35.44L118.69-35.44L118.69-35.44Q118.50-36.63 118.41-37.97L118.41-37.97L118.41-37.97Q118.31-39.31 118.38-40.72L118.38-40.72L118.38-40.72Q118.44-42.13 119-43.44L119-43.44L119-43.44Q120.38-46.63 124.50-46.50L124.50-46.50L124.50-46.50Q127.06-46.44 128.94-46L128.94-46L128.94-46Q130.81-45.56 131.69-45.63L131.69-45.63L131.69-45.63Q132.56-45.69 134.38-46.25L134.38-46.25L134.38-46.25Q137-47.25 138.56-46.13L138.56-46.13L138.56-46.13Q139-45.81 139.41-45.66L139.41-45.66L139.41-45.66Q139.81-45.50 140.13-45.19L140.13-45.19L140.13-45.19Q141.19-44 140.75-40L140.75-40L140.75-40Q140.63-38.81 140.50-37.63L140.50-37.63L140.50-37.63Q140.19-34.81 140.50-33.44L140.50-33.44L140.50-33.44Q140.81-32.06 140.84-31.03L140.84-31.03L140.84-31.03Q140.88-30 140.75-29.19L140.75-29.19L140.75-29.19Q140.38-27.38 139.31-27.38L139.31-27.38L139.31-27.38Q138.38-27.44 137.97-27.97L137.97-27.97L137.97-27.97Q137.56-28.50 137.31-29.16L137.31-29.16L137.31-29.16Q137.06-29.81 136.78-30.34L136.78-30.34L136.78-30.34Q136.50-30.88 135.56-30.88L135.56-30.88L135.56-30.88Q132.81-30.88 131.91-31.47L131.91-31.47L131.91-31.47Q131-32.06 130.31-32.16L130.31-32.16L130.31-32.16Q129.63-32.25 129-32L129-32L129-32Q127.69-31.44 127.47-29.94L127.47-29.94L127.47-29.94Q127.25-28.44 127.19-27.31L127.19-27.31L127.19-27.31Q127.13-26.19 127.19-25.25L127.19-25.25L127.19-25.25Q127.31-23.06 128.03-22.78L128.03-22.78L128.03-22.78Q128.75-22.50 129.25-22.72L129.25-22.72L129.25-22.72Q129.75-22.94 130.25-23.25L130.25-23.25L130.25-23.25Q131.75-24.25 133.34-24.22L133.34-24.22L133.34-24.22Q134.94-24.19 135.72-22.94L135.72-22.94L135.72-22.94Q136.50-21.69 136.38-20.53L136.38-20.53L136.38-20.53Q136.25-19.38 136.16-18.25L136.16-18.25L136.16-18.25Q136.06-17.13 135.88-16.13L135.88-16.13L135.88-16.13Q135-12.25 132.25-14.63L132.25-14.63L132.25-14.63Q128.69-14.88 127.81-13.75L127.81-13.75L127.81-13.75Q127.63-13.44 127.44-12.44L127.44-12.44L127.44-12.44Q127.25-11.44 127.38-10.31L127.38-10.31L127.38-10.31Q127.69-7.38 130.19-7.19L130.19-7.19L130.19-7.19Q131.81-7.06 133.16-7.63L133.16-7.63L133.16-7.63Q134.50-8.19 134.94-8.88L134.94-8.88L134.94-8.88Q135.31-9.63 135.88-9.72L135.88-9.72L135.88-9.72Q136.44-9.81 136.88-9.91L136.88-9.91L136.88-9.91Q137.31-10 137.75-10L137.75-10L137.75-10Q138.19-10 138.63-9.88L138.63-9.88L138.63-9.88Q139.75-9.50 139.97-8.13L139.97-8.13L139.97-8.13Q140.19-6.75 139.69-5.63L139.69-5.63L139.69-5.63Q139.19-4.50 139.03-3.59L139.03-3.59L139.03-3.59Q138.88-2.69 138.75-2.25L138.75-2.25L138.75-2.25Q138.63-1.81 138.03-1.16L138.03-1.16L138.03-1.16Q137.44-0.50 137.09-0.06L137.09-0.06L137.09-0.06Q136.75 0.38 136-0.25L136-0.25L136-0.25Q134.63-1.31 132.69 1L132.69 1L132.69 1Q132.19 1.69 131.63 2L131.63 2L131.63 2Q131.06 2.31 129.88 2.25L129.88 2.25L129.88 2.25Q128.69 2.19 128 1.63L128 1.63L128 1.63Q127.31 1.06 126.75 0.50L126.75 0.50L126.75 0.50Q125.81-0.69 123.50-0.38L123.50-0.38L123.50-0.38Q122.13-0.19 121.25-1.56L121.25-1.56L121.25-1.56Q121.06-1.75 120.97-2.25L120.97-2.25L120.97-2.25Q120.88-2.75 120.75-3.38L120.75-3.38L120.75-3.38Q120.31-5 119.97-5.47L119.97-5.47L119.97-5.47Q119.63-5.94 119.59-6.69L119.59-6.69L119.59-6.69Q119.56-7.44 119.44-8.28L119.44-8.28L119.44-8.28Q119.31-9.13 119.25-9.53L119.25-9.53L119.25-9.53Q119.19-9.94 119.34-10.50L119.34-10.50L119.34-10.50Q119.50-11.06 119.50-11.75ZM166.91-36.44L166.91-36.44L166.91-36.44Q167.06-36.06 167-35.63L167-35.63L167-35.63Q166.94-35.19 166.13-34.13L166.13-34.13L166.13-34.13Q165.31-33.06 165.16-31.84L165.16-31.84L165.16-31.84Q165-30.63 165.06-29.84L165.06-29.84L165.06-29.84Q165.13-29.06 165.06-28.50L165.06-28.50L165.06-28.50Q165-27.13 163.56-26.63L163.56-26.63L163.56-26.63Q162.31-26.13 161.63-26.69L161.63-26.69L161.63-26.69Q160.94-27.25 160.50-28.16L160.50-28.16L160.50-28.16Q160.06-29.06 159.84-29.72L159.84-29.72L159.84-29.72Q159.63-30.38 159.13-30.44L159.13-30.44L159.13-30.44Q158.25-30.63 157.78-30.25L157.78-30.25L157.78-30.25Q157.31-29.88 157.06-29.63L157.06-29.63L157.06-29.63Q156.56-29.13 156.03-28.94L156.03-28.94L156.03-28.94Q155.50-28.75 155.19-28.56L155.19-28.56L155.19-28.56Q154.56-28.13 154.69-27.13L154.69-27.13L154.69-27.13Q154.94-25.19 159-21.25L159-21.25L159-21.25Q159.75-20.50 160.78-19.63L160.78-19.63L160.78-19.63Q161.81-18.75 162.81-17.63L162.81-17.63L162.81-17.63Q165.06-14.94 165.31-11.56L165.31-11.56L165.31-11.56Q165.56-8.13 164.31-5.56L164.31-5.56L164.31-5.56Q163.31-3.50 161.94-2.88L161.94-2.88L161.94-2.88Q160.88-2.31 160.50-1.41L160.50-1.41L160.50-1.41Q160.13-0.50 159.94-0.09L159.94-0.09L159.94-0.09Q159.75 0.31 159.16 0.59L159.16 0.59L159.16 0.59Q158.56 0.88 157.81 0.81L157.81 0.81L157.81 0.81Q157.06 0.75 156.41 0.53L156.41 0.53L156.41 0.53Q155.75 0.31 155.22 0.03L155.22 0.03L155.22 0.03Q154.69-0.25 154.34-0.31L154.34-0.31L154.34-0.31Q154-0.38 153.69-0.09L153.69-0.09L153.69-0.09Q153.38 0.19 153.06 0.50L153.06 0.50L153.06 0.50Q152.13 1.44 151.38 1.22L151.38 1.22L151.38 1.22Q150.63 1 149.63 0.50L149.63 0.50L149.63 0.50Q148.63 0 147.69-0.75L147.69-0.75L147.69-0.75Q144.31-3.38 145.38-6.13L145.38-6.13L145.38-6.13Q146.06-7.94 146.91-8.69L146.91-8.69L146.91-8.69Q147.75-9.44 148.25-9.44L148.25-9.44L148.25-9.44Q149.06-9.44 149.34-8.84L149.34-8.84L149.34-8.84Q149.63-8.25 149.81-7.84L149.81-7.84L149.81-7.84Q150-7.44 150.25-7.19L150.25-7.19L150.25-7.19Q150.50-6.94 151.03-6.69L151.03-6.69L151.03-6.69Q151.56-6.44 152.19-6.38L152.19-6.38L152.19-6.38Q153.75-6.25 154.56-7.63L154.56-7.63L154.56-7.63Q155.38-9 155.19-10.63L155.19-10.63L155.19-10.63Q154.75-13.56 153.94-13.13L153.94-13.13L153.94-13.13Q153.25-12.69 152.25-13.09L152.25-13.09L152.25-13.09Q151.25-13.50 151.19-14.16L151.19-14.16L151.19-14.16Q151.13-14.81 150.94-15.44L150.94-15.44L150.94-15.44Q150.75-16.06 150.50-16.63L150.50-16.63L150.50-16.63Q149.94-18.06 149.50-18.19L149.50-18.19L149.50-18.19Q149-18.31 148.16-18.31L148.16-18.31L148.16-18.31Q147.31-18.31 146.31-19.41L146.31-19.41L146.31-19.41Q145.31-20.50 144.88-22.16L144.88-22.16L144.88-22.16Q144.44-23.81 144.13-25.03L144.13-25.03L144.13-25.03Q143.81-26.25 143.56-26.94L143.56-26.94L143.56-26.94Q143.31-27.63 143.13-28.38L143.13-28.38L143.13-28.38Q142.50-30.75 143.06-34.50L143.06-34.50L143.06-34.50Q143.44-36.69 144.44-38.34L144.44-38.34L144.44-38.34Q145.44-40 146.69-41.63L146.69-41.63L146.69-41.63Q149.06-44.81 151.06-46.06L151.06-46.06L151.06-46.06Q153.06-47.31 154.13-46.31L154.13-46.31L154.13-46.31Q155.06-45.50 156.16-45.66L156.16-45.66L156.16-45.66Q157.25-45.81 157.88-46L157.88-46L159-46.25L159-46.25Q160.06-46.50 161.16-46.19L161.16-46.19L161.16-46.19Q162.25-45.88 163.13-44.06L163.13-44.06L163.13-44.06Q163.56-43.13 164.03-42.44L164.03-42.44L164.03-42.44Q164.50-41.75 164.94-41.13L164.94-41.13L164.94-41.13Q165.88-39.63 166.03-38.66L166.03-38.66L166.03-38.66Q166.19-37.69 166.47-37.25L166.47-37.25L166.47-37.25Q166.75-36.81 166.91-36.44ZM199.50-15.06L199.50-15.06L199.50-15.06Q197.75-15.06 197.88-16.69L197.88-16.69L197.88-16.69Q198-18 197.81-18.81L197.81-18.81L197.81-18.81Q197.50-20.19 197.69-20.81L197.69-20.81L197.69-20.81Q198.19-22.69 201.75-21.69L201.75-21.69L201.75-21.69Q202.38-21.50 202.75-21.50L202.75-21.50L202.75-21.50Q203.13-21.50 203.50-21.56L203.50-21.56L203.50-21.56Q204.63-21.75 205.53-21.59L205.53-21.59L205.53-21.59Q206.44-21.44 207.13-21.50L207.13-21.50L207.13-21.50Q207.81-21.56 208.41-21.69L208.41-21.69L208.41-21.69Q209-21.81 209.50-21.94L209.50-21.94L209.50-21.94Q210-22.06 210.44-22.06L210.44-22.06L210.44-22.06Q211.06-22.06 211.34-21.03L211.34-21.03L211.34-21.03Q211.63-20 211.56-18.75L211.56-18.75L211.56-18.75Q211.38-15.56 210.06-15.06L210.06-15.06L210.06-15.06Q209.13-14.69 208.28-13.88L208.28-13.88L208.28-13.88Q207.44-13.06 207.66-11.47L207.66-11.47L207.66-11.47Q207.88-9.88 207.91-8.97L207.91-8.97L207.91-8.97Q207.94-8.06 207.91-7.41L207.91-7.41L207.91-7.41Q207.88-6.75 207.84-6.28L207.84-6.28L207.84-6.28Q207.81-5.81 207.91-5.09L207.91-5.09L207.91-5.09Q208-4.38 207.84-3.19L207.84-3.19L207.84-3.19Q207.69-2 207.25-1.06L207.25-1.06L207.25-1.06Q206.19 1.19 204.56 0.63L204.56 0.63L204.56 0.63Q203.38 0.25 202.25-1.38L202.25-1.38L202.25-1.38Q201.88-1.94 201.53-2.34L201.53-2.34L201.53-2.34Q201.19-2.75 200.63-2.59L200.63-2.59L200.63-2.59Q200.06-2.44 199.66-1.97L199.66-1.97L199.66-1.97Q199.25-1.50 198.81-1L198.81-1L198.81-1Q196.19 2.25 192.13-0.06L192.13-0.06L192.13-0.06Q190.06-1.19 189.25-2.88L189.25-2.88L189.25-2.88Q188.94-3.63 188.59-4.56L188.59-4.56L188.59-4.56Q188.25-5.50 187.81-6.38L187.81-6.38L187.81-6.38Q186.81-8.44 185.88-9.13L185.88-9.13L185.88-9.13Q185-9.81 184.88-15.88L184.88-15.88L184.88-15.88Q184.81-17.19 184.94-18.16L184.94-18.16L184.94-18.16Q185.06-19.13 185.06-20.63L185.06-20.63L185.06-23.50L185.06-23.50Q185.06-24.88 185-26.13L185-26.13L185-26.13Q185-28.13 185.31-29.63L185.31-29.63L185.31-29.63Q183.31-30.94 183.75-34.69L183.75-34.69L183.75-34.69Q184.06-37.06 184.66-38.16L184.66-38.16L184.66-38.16Q185.25-39.25 185.59-40.34L185.59-40.34L185.59-40.34Q185.94-41.44 186.31-42.66L186.31-42.66L186.31-42.66Q186.69-43.88 187.38-44.25L187.38-44.25L187.38-44.25Q188.06-44.63 188.25-44.88L188.25-44.88L188.25-44.88Q188.44-45.13 188.63-45.38L188.63-45.38L188.63-45.38Q189.81-47.13 193.75-47.75L193.75-47.75L193.75-47.75Q195.50-48.06 197.19-47.44L197.19-47.44L197.19-47.44Q198.88-46.81 200-46.69L200-46.69L200-46.69Q201.13-46.56 202.13-46.50L202.13-46.50L202.13-46.50Q206.44-46.25 207.75-44.69L207.75-44.69L207.75-44.69Q208.69-43.63 208.94-42.53L208.94-42.53L208.94-42.53Q209.19-41.44 209.59-40.78L209.59-40.78L209.59-40.78Q210-40.13 209.88-39.41L209.88-39.41L209.88-39.41Q209.75-38.69 209.84-38.22L209.84-38.22L209.84-38.22Q209.94-37.75 209.75-37.25L209.75-37.25L209.75-37.25Q209.56-36.75 209.38-36.25L209.38-36.25L209.38-36.25Q209-34.94 209.47-34.38L209.47-34.38L209.47-34.38Q209.94-33.81 210.31-33.34L210.31-33.34L210.31-33.34Q210.69-32.88 210.88-32.38L210.88-32.38L210.88-32.38Q211.44-31.13 211-30.25L211-30.25L211-30.25Q210.56-29.38 210.03-28.56L210.03-28.56L210.03-28.56Q209.50-27.75 208.69-27.69L208.69-27.69L208.69-27.69Q206.50-27.50 205.75-26.97L205.75-26.97L205.75-26.97Q205-26.44 204.50-26.25L204.50-26.25L204.50-26.25Q203.25-25.69 202.19-26.38L202.19-26.38L202.19-26.38Q200.44-27.19 200.69-29.38L200.69-29.38L200.69-29.38Q200.81-32 198.75-32.25L198.75-32.25L198.75-32.25Q197.81-32.38 196.81-31.69L196.81-31.69L196.81-31.69Q195.81-31 195.25-29.88L195.25-29.88L195.25-29.88Q193.94-26.94 194.94-24.44L194.94-24.44L194.94-24.44Q195.19-23.81 195.19-22.88L195.19-22.88L195.19-21.25L195.19-21.25Q195.19-19.81 194.84-19.13L194.84-19.13L194.84-19.13Q194.50-18.44 194.44-17.53L194.44-17.53L194.44-17.53Q194.38-16.63 194.41-15.44L194.41-15.44L194.41-15.44Q194.44-14.25 194.59-12.91L194.59-12.91L194.59-12.91Q194.75-11.56 195-10.44L195-10.44L195-10.44Q195.69-7.81 196.94-7.94L196.94-7.94L196.94-7.94Q197.94-7.94 198.50-8.88L198.50-8.88L198.50-8.88Q198.69-9.25 198.94-9.63L198.94-9.63L198.94-9.63Q199.19-10 199.69-10.22L199.69-10.22L199.69-10.22Q200.19-10.44 200.41-10.94L200.41-10.94L200.41-10.94Q200.63-11.44 200.63-12.13L200.63-12.13L200.63-12.13Q200.69-12.88 200.50-15.19L200.50-15.19L200.50-15.19Q200-15.06 199.50-15.06ZM218.25 0.75L218.25 0.75L218.25 0.75Q217.63 0.94 216.84 0.66L216.84 0.66L216.84 0.66Q216.06 0.38 215.75-0.41L215.75-0.41L215.75-0.41Q215.44-1.19 215.34-2.22L215.34-2.22L215.34-2.22Q215.25-3.25 215.31-4.44L215.31-4.44L215.31-4.44Q215.38-5.63 215.38-6.75L215.38-6.75L215.38-6.75Q215.38-9.25 214.56-9.94L214.56-9.94L214.56-9.94Q212.88-11.19 213.19-16.31L213.19-16.31L213.19-16.31Q213.50-19.25 213.88-21L213.88-21L213.88-21Q214.50-23.88 214.47-25.88L214.47-25.88L214.47-25.88Q214.44-27.88 214.59-29L214.59-29L214.59-29Q214.75-30.13 214.97-30.88L214.97-30.88L214.97-30.88Q215.19-31.63 215.50-32.44L215.50-32.44L215.50-32.44Q215.81-33.25 216.06-35.13L216.06-35.13L216.06-35.13Q216.69-39.81 217.19-40.94L217.19-40.94L217.19-40.94Q217.88-42.50 218.84-44.16L218.84-44.16L218.84-44.16Q219.81-45.81 220.44-46.38L220.44-46.38L220.44-46.38Q221.88-47.44 224.56-46.56L224.56-46.56L224.56-46.56Q226.56-45.88 228.28-46.13L228.28-46.13L228.28-46.13Q230-46.38 230.91-46.34L230.91-46.34L230.91-46.34Q231.81-46.31 232.94-45.66L232.94-45.66L232.94-45.66Q234.06-45 234.69-44.09L234.69-44.09L234.69-44.09Q235.31-43.19 235.56-42.13L235.56-42.13L235.56-42.13Q236-40.31 235.63-37.53L235.63-37.53L235.63-37.53Q235.25-34.75 235.34-33.03L235.34-33.03L235.34-33.03Q235.44-31.31 236.09-29.78L236.09-29.78L236.09-29.78Q236.75-28.25 236.97-27.34L236.97-27.34L236.97-27.34Q237.19-26.44 237.34-25.53L237.34-25.53L237.34-25.53Q237.50-24.63 237.59-23.59L237.59-23.59L237.59-23.59Q237.69-22.56 237.97-21.25L237.97-21.25L237.97-21.25Q238.25-19.94 238.28-19.16L238.28-19.16L238.28-19.16Q238.31-18.38 238.25-17.88L238.25-17.88L238.25-17.88Q238.19-17.38 238.09-16.97L238.09-16.97L238.09-16.97Q238-16.56 238.16-15.72L238.16-15.72L238.16-15.72Q238.31-14.88 238.16-13.88L238.16-13.88L238.16-13.88Q238-12.88 237.81-11.94L237.81-11.94L237.81-11.94Q237.13-9.06 237.25-7.88L237.25-7.88L237.25-7.88Q237.50-5.75 237.25-4.84L237.25-4.84L237.25-4.84Q237-3.94 236.78-3.38L236.78-3.38L236.78-3.38Q236.56-2.81 236.28-1.81L236.28-1.81L236.28-1.81Q236-0.81 235.13 0L235.13 0L235.13 0Q234.25 0.81 233.47 0.50L233.47 0.50L233.47 0.50Q232.69 0.19 232.47-0.41L232.47-0.41L232.47-0.41Q232.25-1 232.09-1.63L232.09-1.63L232.09-1.63Q231.94-2.25 231.72-2.75L231.72-2.75L231.72-2.75Q231.50-3.25 230.94-3.31L230.94-3.31L230.94-3.31Q229.94-3.44 229.88-4.47L229.88-4.47L229.88-4.47Q229.81-5.50 229.91-6.28L229.91-6.28L229.91-6.28Q230-7.06 229.81-7.88L229.81-7.88L229.81-7.88Q229.63-8.69 229.19-9.44L229.19-9.44L229.19-9.44Q228.06-11.38 226.56-11.56L226.56-11.56L226.56-11.56Q224.31-11.88 223.44-9.38L223.44-9.38L223.44-9.38Q223.25-8.75 223.16-7.72L223.16-7.72L223.16-7.72Q223.06-6.69 222.66-5.88L222.66-5.88L222.66-5.88Q222.25-5.06 221.78-4.50L221.78-4.50L221.78-4.50Q221.31-3.94 220.91-3.47L220.91-3.47L220.91-3.47Q220.50-3 220.38-2.31L220.38-2.31L220.38-2.31Q219.88 0.38 218.25 0.75ZM223.81-25.44L223.81-25.44L223.81-25.44Q222.56-22.06 223.50-20.06L223.50-20.06L223.50-20.06Q224.13-18.94 225.13-18.88L225.13-18.88L225.13-18.88Q226.94-18.69 227.28-19.16L227.28-19.16L227.28-19.16Q227.63-19.63 228.09-20.16L228.09-20.16L228.09-20.16Q228.56-20.69 228.44-21.78L228.44-21.78L228.44-21.78Q228.31-22.88 228.25-23.72L228.25-23.72L228.25-23.72Q228.19-24.56 227.66-25.63L227.66-25.63L227.66-25.63Q227.13-26.69 226.94-27.91L226.94-27.91L226.94-27.91Q226.75-29.13 226.69-30.25L226.69-30.25L226.69-30.25Q226.44-32.75 225.56-32.75L225.56-32.75L225.56-32.75Q224.94-32.75 224.78-32.09L224.78-32.09L224.78-32.09Q224.63-31.44 224.56-30.38L224.56-30.38L224.56-30.38Q224.50-27.13 223.81-25.44ZM260.91-9.47L260.91-9.47L260.91-9.47Q261.19-9 261.16-8.34L261.16-8.34L261.16-8.34Q261.13-7.69 261.03-7L261.03-7L261.03-7Q260.94-6.31 261.06-5.47L261.06-5.47L261.06-5.47Q261.19-4.63 261.28-3.84L261.28-3.84L261.28-3.84Q261.38-3.06 261.38-2.38L261.38-2.38L261.38-2.38Q261.38-1.69 260.97-1.22L260.97-1.22L260.97-1.22Q260.56-0.75 259.75-0.44L259.75-0.44L259.75-0.44Q258.94-0.13 257.94 0L257.94 0L257.94 0Q255.63 0.19 253.94-0.69L253.94-0.69L253.94-0.69Q252.38-1.50 250.97-1.19L250.97-1.19L250.97-1.19Q249.56-0.88 248.78-0.59L248.78-0.59L248.78-0.59Q248-0.31 246.97-0.06L246.97-0.06L246.97-0.06Q245.94 0.19 244.94 0.16L244.94 0.16L244.94 0.16Q243.94 0.13 243.25-0.97L243.25-0.97L243.25-0.97Q242.56-2.06 242.50-3.50L242.50-3.50L242.50-3.50Q242.44-4.94 242.94-6.44L242.94-6.44L242.94-6.44Q243.44-7.94 243.31-9.84L243.31-9.84L243.31-9.84Q243.19-11.75 243.06-13.09L243.06-13.09L243.06-13.09Q242.94-14.44 243.06-15.44L243.06-15.44L243.06-15.44Q243.38-17.81 242.50-18.75L242.50-18.75L242.50-18.75Q241.81-19.56 241.81-20.66L241.81-20.66L241.81-20.66Q241.81-21.75 241.88-22.44L241.88-22.44L241.88-22.44Q241.94-23.13 242.31-23.63L242.31-23.63L242.31-23.63Q242.69-24.13 242.78-24.47L242.78-24.47L242.78-24.47Q242.88-24.81 242.75-25.69L242.75-25.69L242.75-25.69Q242.25-29.25 242.41-31.19L242.41-31.19L242.41-31.19Q242.56-33.13 242.34-34.53L242.34-34.53L242.34-34.53Q242.13-35.94 242.25-36.84L242.25-36.84L242.25-36.84Q242.38-37.75 242.13-38.38L242.13-38.38L242.13-38.38Q241.88-39 241.97-39.28L241.97-39.28L241.97-39.28Q242.06-39.56 241.94-40.09L241.94-40.09L241.94-40.09Q241.81-40.63 241.69-41.25L241.69-41.25L241.69-41.25Q241.31-43.13 241.47-43.81L241.47-43.81L241.47-43.81Q241.63-44.50 242.09-45.41L242.09-45.41L242.09-45.41Q242.56-46.31 243.25-46.50L243.25-46.50L243.25-46.50Q243.94-46.69 244.06-46.81L244.06-46.81L244.06-46.81Q244.19-46.94 244.69-47.13L244.69-47.13L244.69-47.13Q246-47.50 246.63-47.19L246.63-47.19L246.63-47.19Q247.25-46.88 247.75-46.84L247.75-46.84L247.75-46.84Q248.25-46.81 248.78-46.84L248.78-46.84L248.78-46.84Q249.31-46.88 249.81-47L249.81-47L250.56-47.13L250.56-47.13Q251.88-47.50 252.56-47L252.56-47L252.56-47Q253-46.56 253.19-46.31L253.19-46.31L253.19-46.31Q253.38-46.06 253.25-45.56L253.25-45.56L253.25-45.56Q253.13-45.06 253.38-44.75L253.38-44.75L253.38-44.75Q253.63-44.44 253.56-43.84L253.56-43.84L253.56-43.84Q253.50-43.25 253.53-42.97L253.53-42.97L253.53-42.97Q253.56-42.69 253.63-42.38L253.63-42.38L253.63-42.38Q253.75-41.75 253.50-40.88L253.50-40.88L253.50-40.88Q253.25-40 253.19-39.72L253.19-39.72L253.19-39.72Q253.13-39.44 253.13-39.19L253.13-39.19L253.13-39.19Q253.13-38.38 252.91-37.66L252.91-37.66L252.91-37.66Q252.69-36.94 252.66-36.47L252.66-36.47L252.66-36.47Q252.63-36 252.63-35.38L252.63-35.38L252.63-34L252.63-34Q252.63-33.25 252.53-32.13L252.53-32.13L252.53-32.13Q252.44-31 252.34-29.47L252.34-29.47L252.34-29.47Q252.25-27.94 252.19-26.38L252.19-26.38L252.19-26.38Q251.94-22.25 251.56-21.13L251.56-21.13L251.56-21.13Q250.56-20.56 251.25-18.50L251.25-18.50L251.69-17.19L251.69-17.19Q252.31-15.31 252.31-13.50L252.31-13.50L252.31-13.50Q252.31-11.69 252-10L252-10L252-10Q253.81-9 254.56-8.94L254.56-8.94L254.56-8.94Q256.38-8.69 257.84-9.44L257.84-9.44L257.84-9.44Q259.31-10.19 259.97-10.06L259.97-10.06L259.97-10.06Q260.63-9.94 260.91-9.47ZM281.22-9.47L281.22-9.47L281.22-9.47Q281.50-9 281.47-8.34L281.47-8.34L281.47-8.34Q281.44-7.69 281.34-7L281.34-7L281.34-7Q281.25-6.31 281.38-5.47L281.38-5.47L281.38-5.47Q281.50-4.63 281.59-3.84L281.59-3.84L281.59-3.84Q281.69-3.06 281.69-2.38L281.69-2.38L281.69-2.38Q281.69-1.69 281.28-1.22L281.28-1.22L281.28-1.22Q280.88-0.75 280.06-0.44L280.06-0.44L280.06-0.44Q279.25-0.13 278.25 0L278.25 0L278.25 0Q275.94 0.19 274.25-0.69L274.25-0.69L274.25-0.69Q272.69-1.50 271.28-1.19L271.28-1.19L271.28-1.19Q269.88-0.88 269.09-0.59L269.09-0.59L269.09-0.59Q268.31-0.31 267.28-0.06L267.28-0.06L267.28-0.06Q266.25 0.19 265.25 0.16L265.25 0.16L265.25 0.16Q264.25 0.13 263.56-0.97L263.56-0.97L263.56-0.97Q262.88-2.06 262.81-3.50L262.81-3.50L262.81-3.50Q262.75-4.94 263.25-6.44L263.25-6.44L263.25-6.44Q263.75-7.94 263.63-9.84L263.63-9.84L263.63-9.84Q263.50-11.75 263.38-13.09L263.38-13.09L263.38-13.09Q263.25-14.44 263.38-15.44L263.38-15.44L263.38-15.44Q263.69-17.81 262.81-18.75L262.81-18.75L262.81-18.75Q262.13-19.56 262.13-20.66L262.13-20.66L262.13-20.66Q262.13-21.75 262.19-22.44L262.19-22.44L262.19-22.44Q262.25-23.13 262.63-23.63L262.63-23.63L262.63-23.63Q263-24.13 263.09-24.47L263.09-24.47L263.09-24.47Q263.19-24.81 263.06-25.69L263.06-25.69L263.06-25.69Q262.56-29.25 262.72-31.19L262.72-31.19L262.72-31.19Q262.88-33.13 262.66-34.53L262.66-34.53L262.66-34.53Q262.44-35.94 262.56-36.84L262.56-36.84L262.56-36.84Q262.69-37.75 262.44-38.38L262.44-38.38L262.44-38.38Q262.19-39 262.28-39.28L262.28-39.28L262.28-39.28Q262.38-39.56 262.25-40.09L262.25-40.09L262.25-40.09Q262.13-40.63 262-41.25L262-41.25L262-41.25Q261.63-43.13 261.78-43.81L261.78-43.81L261.78-43.81Q261.94-44.50 262.41-45.41L262.41-45.41L262.41-45.41Q262.88-46.31 263.56-46.50L263.56-46.50L263.56-46.50Q264.25-46.69 264.38-46.81L264.38-46.81L264.38-46.81Q264.50-46.94 265-47.13L265-47.13L265-47.13Q266.31-47.50 266.94-47.19L266.94-47.19L266.94-47.19Q267.56-46.88 268.06-46.84L268.06-46.84L268.06-46.84Q268.56-46.81 269.09-46.84L269.09-46.84L269.09-46.84Q269.63-46.88 270.13-47L270.13-47L270.88-47.13L270.88-47.13Q272.19-47.50 272.88-47L272.88-47L272.88-47Q273.31-46.56 273.50-46.31L273.50-46.31L273.50-46.31Q273.69-46.06 273.56-45.56L273.56-45.56L273.56-45.56Q273.44-45.06 273.69-44.75L273.69-44.75L273.69-44.75Q273.94-44.44 273.88-43.84L273.88-43.84L273.88-43.84Q273.81-43.25 273.84-42.97L273.84-42.97L273.84-42.97Q273.88-42.69 273.94-42.38L273.94-42.38L273.94-42.38Q274.06-41.75 273.81-40.88L273.81-40.88L273.81-40.88Q273.56-40 273.50-39.72L273.50-39.72L273.50-39.72Q273.44-39.44 273.44-39.19L273.44-39.19L273.44-39.19Q273.44-38.38 273.22-37.66L273.22-37.66L273.22-37.66Q273-36.94 272.97-36.47L272.97-36.47L272.97-36.47Q272.94-36 272.94-35.38L272.94-35.38L272.94-34L272.94-34Q272.94-33.25 272.84-32.13L272.84-32.13L272.84-32.13Q272.75-31 272.66-29.47L272.66-29.47L272.66-29.47Q272.56-27.94 272.50-26.38L272.50-26.38L272.50-26.38Q272.25-22.25 271.88-21.13L271.88-21.13L271.88-21.13Q270.88-20.56 271.56-18.50L271.56-18.50L272-17.19L272-17.19Q272.63-15.31 272.63-13.50L272.63-13.50L272.63-13.50Q272.63-11.69 272.31-10L272.31-10L272.31-10Q274.13-9 274.88-8.94L274.88-8.94L274.88-8.94Q276.69-8.69 278.16-9.44L278.16-9.44L278.16-9.44Q279.63-10.19 280.28-10.06L280.28-10.06L280.28-10.06Q280.94-9.94 281.22-9.47ZM284.19-11.75L284.19-11.75L284.13-14.94L284.13-14.94Q284.13-15.81 284.19-16.56L284.19-16.56L284.19-16.56Q284.25-17.38 284.06-18.56L284.06-18.56L284.06-18.56Q283.75-20.63 283.78-21.59L283.78-21.59L283.78-21.59Q283.81-22.56 283.78-23.16L283.78-23.16L283.78-23.16Q283.75-23.75 283.63-24.25L283.63-24.25L283.63-24.25Q283.44-25 282.72-26.63L282.72-26.63L282.72-26.63Q282-28.25 282-30.13L282-30.13L282-30.13Q282-32 282.81-33.13L282.81-33.13L282.81-33.13Q283.56-34.25 283.38-35.44L283.38-35.44L283.38-35.44Q283.19-36.63 283.09-37.97L283.09-37.97L283.09-37.97Q283-39.31 283.06-40.72L283.06-40.72L283.06-40.72Q283.13-42.13 283.69-43.44L283.69-43.44L283.69-43.44Q285.06-46.63 289.19-46.50L289.19-46.50L289.19-46.50Q291.75-46.44 293.63-46L293.63-46L293.63-46Q295.50-45.56 296.38-45.63L296.38-45.63L296.38-45.63Q297.25-45.69 299.06-46.25L299.06-46.25L299.06-46.25Q301.69-47.25 303.25-46.13L303.25-46.13L303.25-46.13Q303.69-45.81 304.09-45.66L304.09-45.66L304.09-45.66Q304.50-45.50 304.81-45.19L304.81-45.19L304.81-45.19Q305.88-44 305.44-40L305.44-40L305.44-40Q305.31-38.81 305.19-37.63L305.19-37.63L305.19-37.63Q304.88-34.81 305.19-33.44L305.19-33.44L305.19-33.44Q305.50-32.06 305.53-31.03L305.53-31.03L305.53-31.03Q305.56-30 305.44-29.19L305.44-29.19L305.44-29.19Q305.06-27.38 304-27.38L304-27.38L304-27.38Q303.06-27.44 302.66-27.97L302.66-27.97L302.66-27.97Q302.25-28.50 302-29.16L302-29.16L302-29.16Q301.75-29.81 301.47-30.34L301.47-30.34L301.47-30.34Q301.19-30.88 300.25-30.88L300.25-30.88L300.25-30.88Q297.50-30.88 296.59-31.47L296.59-31.47L296.59-31.47Q295.69-32.06 295-32.16L295-32.16L295-32.16Q294.31-32.25 293.69-32L293.69-32L293.69-32Q292.38-31.44 292.16-29.94L292.16-29.94L292.16-29.94Q291.94-28.44 291.88-27.31L291.88-27.31L291.88-27.31Q291.81-26.19 291.88-25.25L291.88-25.25L291.88-25.25Q292-23.06 292.72-22.78L292.72-22.78L292.72-22.78Q293.44-22.50 293.94-22.72L293.94-22.72L293.94-22.72Q294.44-22.94 294.94-23.25L294.94-23.25L294.94-23.25Q296.44-24.25 298.03-24.22L298.03-24.22L298.03-24.22Q299.63-24.19 300.41-22.94L300.41-22.94L300.41-22.94Q301.19-21.69 301.06-20.53L301.06-20.53L301.06-20.53Q300.94-19.38 300.84-18.25L300.84-18.25L300.84-18.25Q300.75-17.13 300.56-16.13L300.56-16.13L300.56-16.13Q299.69-12.25 296.94-14.63L296.94-14.63L296.94-14.63Q293.38-14.88 292.50-13.75L292.50-13.75L292.50-13.75Q292.31-13.44 292.13-12.44L292.13-12.44L292.13-12.44Q291.94-11.44 292.06-10.31L292.06-10.31L292.06-10.31Q292.38-7.38 294.88-7.19L294.88-7.19L294.88-7.19Q296.50-7.06 297.84-7.63L297.84-7.63L297.84-7.63Q299.19-8.19 299.63-8.88L299.63-8.88L299.63-8.88Q300-9.63 300.56-9.72L300.56-9.72L300.56-9.72Q301.13-9.81 301.56-9.91L301.56-9.91L301.56-9.91Q302-10 302.44-10L302.44-10L302.44-10Q302.88-10 303.31-9.88L303.31-9.88L303.31-9.88Q304.44-9.50 304.66-8.13L304.66-8.13L304.66-8.13Q304.88-6.75 304.38-5.63L304.38-5.63L304.38-5.63Q303.88-4.50 303.72-3.59L303.72-3.59L303.72-3.59Q303.56-2.69 303.44-2.25L303.44-2.25L303.44-2.25Q303.31-1.81 302.72-1.16L302.72-1.16L302.72-1.16Q302.13-0.50 301.78-0.06L301.78-0.06L301.78-0.06Q301.44 0.38 300.69-0.25L300.69-0.25L300.69-0.25Q299.31-1.31 297.38 1L297.38 1L297.38 1Q296.88 1.69 296.31 2L296.31 2L296.31 2Q295.75 2.31 294.56 2.25L294.56 2.25L294.56 2.25Q293.38 2.19 292.69 1.63L292.69 1.63L292.69 1.63Q292 1.06 291.44 0.50L291.44 0.50L291.44 0.50Q290.50-0.69 288.19-0.38L288.19-0.38L288.19-0.38Q286.81-0.19 285.94-1.56L285.94-1.56L285.94-1.56Q285.75-1.75 285.66-2.25L285.66-2.25L285.66-2.25Q285.56-2.75 285.44-3.38L285.44-3.38L285.44-3.38Q285-5 284.66-5.47L284.66-5.47L284.66-5.47Q284.31-5.94 284.28-6.69L284.28-6.69L284.28-6.69Q284.25-7.44 284.13-8.28L284.13-8.28L284.13-8.28Q284-9.13 283.94-9.53L283.94-9.53L283.94-9.53Q283.88-9.94 284.03-10.50L284.03-10.50L284.03-10.50Q284.19-11.06 284.19-11.75ZM325.13-44.94L325.13-44.94L327.13-45.06L327.13-45.06Q329.25-45.06 330.16-44.38L330.16-44.38L330.16-44.38Q331.06-43.69 331.53-43.13L331.53-43.13L331.53-43.13Q332-42.56 332.38-41.97L332.38-41.97L332.38-41.97Q332.75-41.38 333.41-40.75L333.41-40.75L333.41-40.75Q334.06-40.13 334.06-39.28L334.06-39.28L334.06-39.28Q334.06-38.44 334.53-37.94L334.53-37.94L334.53-37.94Q335-37.44 335-36.31L335-36.31L335-36.31Q335-35.19 334.97-34.16L334.97-34.16L334.97-34.16Q334.94-33.13 334.75-32.47L334.75-32.47L334.75-32.47Q334.56-31.81 334.56-31.16L334.56-31.16L334.56-31.16Q334.56-30.50 334.84-29.97L334.84-29.97L334.84-29.97Q335.13-29.44 334.91-27.41L334.91-27.41L334.91-27.41Q334.69-25.38 334.22-23.31L334.22-23.31L334.22-23.31Q333.75-21.25 333-19.75L333-19.75L333-19.75Q331.50-16.94 328.13-15.31L328.13-15.31L328.13-15.31Q328.44-14.56 328.84-13.66L328.84-13.66L328.84-13.66Q329.25-12.75 329.63-11.81L329.63-11.81L329.63-11.81Q330.44-9.50 330.44-8.47L330.44-8.47L330.44-8.47Q330.44-7.44 330.53-6.97L330.53-6.97L330.53-6.97Q330.63-6.50 330.75-6.25L330.75-6.25L330.75-6.25Q330.88-6 331.09-5.88L331.09-5.88L331.09-5.88Q331.31-5.75 331.75-5.41L331.75-5.41L331.75-5.41Q332.19-5.06 332.44-4.25L332.44-4.25L332.44-4.25Q332.69-3.44 332.69-2.56L332.69-2.56L332.69-2.56Q332.69-0.56 332.22-0.09L332.22-0.09L332.22-0.09Q331.75 0.38 331.22 0.53L331.22 0.53L331.22 0.53Q330.69 0.69 330.13 0.75L330.13 0.75L330.13 0.75Q328.69 0.94 328.31 0.38L328.31 0.38L328.31 0.38Q327.81-0.13 327.78-0.66L327.78-0.66L327.78-0.66Q327.75-1.19 327.56-1.59L327.56-1.59L327.56-1.59Q327.38-2 327-2.09L327-2.09L327-2.09Q326.63-2.19 326.47-2.88L326.47-2.88L326.47-2.88Q326.31-3.56 326.03-3.78L326.03-3.78L326.03-3.78Q325.75-4 324.88-3.88L324.88-3.88L324.88-3.88Q323.31-3.56 322.56-5.75L322.56-5.75L322.56-5.75Q322.38-6.25 322.19-7.06L322.19-7.06L322.19-7.06Q322-7.88 321.75-8.63L321.75-8.63L321.75-8.63Q321.25-10.44 320.59-10.59L320.59-10.59L320.59-10.59Q319.94-10.75 319.63-10.44L319.63-10.44L319.63-10.44Q319.31-10.13 319.16-9.59L319.16-9.59L319.16-9.59Q319-9.06 319-8.41L319-8.41L319-8.41Q319-7.75 319.16-7L319.16-7L319.16-7Q319.31-6.25 319.19-5.75L319.19-5.75L319.19-5.75Q319.06-5.25 318.84-4.94L318.84-4.94L318.84-4.94Q318.63-4.63 318.38-4.38L318.38-4.38L318.38-4.38Q317.88-4.06 317.78-3.13L317.78-3.13L317.78-3.13Q317.69-2.19 317.50-1.50L317.50-1.50L317.50-1.50Q317.13 0.19 316.50 0.63L316.50 0.63L316.50 0.63Q315.88 1.06 315.25 1.16L315.25 1.16L315.25 1.16Q314.63 1.25 314 1.13L314 1.13L314 1.13Q312.44 0.81 312.06 0.03L312.06 0.03L312.06 0.03Q311.69-0.75 311.63-1.16L311.63-1.16L311.63-1.16Q311.56-1.56 311.59-1.94L311.59-1.94L311.59-1.94Q311.63-2.31 311.69-2.75L311.69-2.75L311.69-2.75Q311.75-3.19 311.72-3.78L311.72-3.78L311.72-3.78Q311.69-4.38 311.44-5.38L311.44-5.38L311.44-5.38Q311.19-6.38 311.13-7.75L311.13-7.75L311.06-9.38L311.06-9.38Q311.06-9.63 311.50-10.22L311.50-10.22L311.50-10.22Q311.94-10.81 311.78-11.59L311.78-11.59L311.78-11.59Q311.63-12.38 311.06-12.59L311.06-12.59L311.06-12.59Q310.50-12.81 310.50-13.13L310.50-13.13L310.50-13.13Q310.50-13.44 310.63-14.69L310.63-14.69L310.63-14.69Q310.75-15.94 310.53-17.81L310.53-17.81L310.53-17.81Q310.31-19.69 310.25-21.13L310.25-21.13L310.25-21.13Q310-24.25 309.16-24.66L309.16-24.66L309.16-24.66Q308.31-25.06 308.19-25.66L308.19-25.66L308.19-25.66Q308.06-26.25 308.19-27L308.19-27L308.19-27Q308.31-27.75 308.47-28.88L308.47-28.88L308.47-28.88Q308.63-30 308.81-31.16L308.81-31.16L308.81-31.16Q309-32.31 309.16-33.31L309.16-33.31L309.16-33.31Q309.31-34.31 309.38-34.69L309.38-34.69L309.38-34.69Q309.44-35.06 309.41-35.41L309.41-35.41L309.41-35.41Q309.38-35.75 309.38-36.06L309.38-36.06L309.38-36.06Q309.25-37.06 309.38-37.81L309.38-37.81L309.38-37.81Q309.63-39.25 309.50-39.84L309.50-39.84L309.50-39.84Q309.38-40.44 309.72-41.66L309.72-41.66L309.72-41.66Q310.06-42.88 310.31-43.38L310.31-43.38L310.31-43.38Q310.56-43.88 311.25-44.13L311.25-44.13L311.25-44.13Q311.94-44.38 312.59-44.84L312.59-44.84L312.59-44.84Q313.25-45.31 313.81-45.78L313.81-45.78L313.81-45.78Q314.38-46.25 314.81-46.66L314.81-46.66L314.81-46.66Q315.25-47.06 315.88-47.25L315.88-47.25L315.88-47.25Q317.69-47.63 318.53-47.34L318.53-47.34L318.53-47.34Q319.38-47.06 319.75-46.75L319.75-46.75L319.75-46.75Q320.13-46.44 320.66-46.13L320.66-46.13L320.66-46.13Q321.19-45.81 321.78-45.66L321.78-45.66L321.78-45.66Q322.38-45.50 322.88-45.50L322.88-45.50L322.88-45.50Q324.19-45.38 324.47-45.16L324.47-45.16L324.47-45.16Q324.75-44.94 325.13-44.94ZM319.94-27.50L319.94-27.50L320.31-21.81L320.31-21.81Q320.31-21.25 320.25-20.72L320.25-20.72L320.25-20.72Q320.19-20.19 320.13-19.75L320.13-19.75L320.13-19.75Q320.06-18.81 320.81-18.63L320.81-18.63L320.81-18.63Q321.44-18.50 321.81-18.97L321.81-18.97L321.81-18.97Q322.19-19.44 322.50-20.25L322.50-20.25L322.50-20.25Q323.25-21.81 323-22.25L323-22.25L323-22.25Q322.50-22.88 322.72-23.34L322.72-23.34L322.72-23.34Q322.94-23.81 323.66-25.19L323.66-25.19L323.66-25.19Q324.38-26.56 324.72-27.56L324.72-27.56L324.72-27.56Q325.06-28.56 324.88-29.72L324.88-29.72L324.88-29.72Q324.69-30.88 324.69-31.31L324.69-31.31L324.69-32L324.69-32Q324.69-32.50 324.22-32.91L324.22-32.91L324.22-32.91Q323.75-33.31 323.56-33.34L323.56-33.34L323.56-33.34Q323.38-33.38 323.25-33.38L323.25-33.38L323.25-33.38Q322.69-33.25 322.19-33.47L322.19-33.47L322.19-33.47Q321.69-33.69 321.25-33.66L321.25-33.66L321.25-33.66Q320.81-33.63 320.25-33.06L320.25-33.06L320.25-33.06Q319.69-32.50 319.63-31.91L319.63-31.91L319.63-31.91Q319.56-31.31 319.63-30.56L319.63-30.56L319.63-30.56Q319.94-28.31 319.94-27.50ZM363.44-46.25L363.44-46.25L363.44-46.25Q364.25-46.25 365.31-44.94L365.31-44.94L365.31-44.94Q365.81-44.19 365.81-43.13L365.81-43.13L365.81-43.13Q365.81-41.06 364.38-39.53L364.38-39.53L364.38-39.53Q362.94-38 362.44-37L362.44-37L362.44-37Q361.94-36 361.91-35L361.91-35L361.91-35Q361.88-34 361.69-33.31L361.69-33.31L361.69-33.31Q361.50-32.63 361.13-32L361.13-32L361.13-32Q360.31-30.56 358.81-30.19L358.81-30.19L358.81-30.19Q358.50-28.75 357.66-27.69L357.66-27.69L357.66-27.69Q356.81-26.63 356.59-26.19L356.59-26.19L356.59-26.19Q356.38-25.75 356.25-25.38L356.25-25.38L356.25-25.38Q355.94-24.56 355.50-23.94L355.50-23.94L355.50-23.94Q355.13-16.38 355.25-13.13L355.25-13.13L355.25-13.13Q355.38-8 353.44-5.81L353.44-5.81L353.44-5.81Q352.75-4.88 352.50-2.84L352.50-2.84L352.50-2.84Q352.25-0.81 352-0.03L352-0.03L352-0.03Q351.75 0.75 351 0.84L351 0.84L351 0.84Q350.25 0.94 349.72 0.63L349.72 0.63L349.72 0.63Q349.19 0.31 348.84-0.19L348.84-0.19L348.84-0.19Q348.50-0.69 348.22-1.25L348.22-1.25L348.22-1.25Q347.94-1.81 347.28-2.44L347.28-2.44L347.28-2.44Q346.63-3.06 346.66-4.44L346.66-4.44L346.66-4.44Q346.69-5.81 346.78-6.94L346.78-6.94L346.78-6.94Q346.88-8.06 346.59-8.75L346.59-8.75L346.59-8.75Q346.31-9.44 345.94-10.06L345.94-10.06L345.94-10.06Q345.56-10.69 345.19-11.25L345.19-11.25L345.19-11.25Q344.44-12.44 344.59-13.84L344.59-13.84L344.59-13.84Q344.75-15.25 344.88-16.25L344.88-16.25L344.88-16.25Q345.31-18.81 345.25-19.56L345.25-19.56L345.25-19.56Q345-21.31 345.38-23.44L345.38-23.44L345.38-23.44Q344.88-24.31 344.63-25.25L344.63-25.25L344.63-25.25Q344.19-26.88 343.25-27.19L343.25-27.19L343.25-27.19Q341.38-27.75 340.63-30.25L340.63-30.25L340.63-30.25Q340.06-32.19 340.34-32.75L340.34-32.75L340.34-32.75Q340.63-33.31 340.69-33.50L340.69-33.50L340.69-33.50Q340.88-34 338.63-35.94L338.63-35.94L338.63-35.94Q337.50-36.88 337.03-38.25L337.03-38.25L337.03-38.25Q336.56-39.63 336.03-40.53L336.03-40.53L336.03-40.53Q335.50-41.44 335-42.25L335-42.25L335-42.25Q334-44 334.50-45.25L334.50-45.25L334.50-45.25Q335-46.13 336.38-46.34L336.38-46.34L336.38-46.34Q337.75-46.56 339.13-46.09L339.13-46.09L339.13-46.09Q340.50-45.63 341.44-45.56L341.44-45.56L341.44-45.56Q342.38-45.50 343.22-45.53L343.22-45.53L343.22-45.53Q344.06-45.56 344.72-45.59L344.72-45.59L344.72-45.59Q345.38-45.63 345.75-45.56L345.75-45.56L345.75-45.56Q346-45 346.53-44.50L346.53-44.50L346.53-44.50Q347.06-44 347.28-43.13L347.28-43.13L347.28-43.13Q347.50-42.25 347.53-40.81L347.53-40.81L347.53-40.81Q347.56-39.38 348.16-38.38L348.16-38.38L348.16-38.38Q348.75-37.38 348.91-36.56L348.91-36.56L348.91-36.56Q349.06-35.75 349.16-35L349.16-35L349.16-35Q349.25-34.25 349.38-33.72L349.38-33.72L349.38-33.72Q349.50-33.19 349.94-33.13L349.94-33.13L349.94-33.13Q350.38-33 350.56-33.63L350.56-33.63L350.56-33.63Q350.75-34.25 350.94-35.19L350.94-35.19L350.94-35.19Q351.50-38 352.19-38.94L352.19-38.94L352.19-38.94Q353-40 353.28-41.81L353.28-41.81L353.28-41.81Q353.56-43.63 353.75-44.44L353.75-44.44L353.75-44.44Q353.94-45.25 354.56-45.78L354.56-45.78L354.56-45.78Q355.19-46.31 356.50-46.13L356.50-46.13L356.50-46.13Q357.81-45.94 359.38-45.72L359.38-45.72L359.38-45.72Q360.94-45.50 361.94-45.88L361.94-45.88L361.94-45.88Q362.94-46.25 363.44-46.25Z" fill="#5699d2"></path></g></g><style>text {
  font-size: 64px;
  font-family: Arial Black;
  dominant-baseline: central;
  text-anchor: middle;
}</style></svg>